Jump_normalized_Motion_pl12
version=1
nRows=12
nColumns=43
inDegrees=yes
endheader
time		pelvis_tilt		pelvis_list		pelvis_rotation		pelvis_tx		pelvis_ty		pelvis_tz		hip_flexion_r		hip_adduction_r		hip_rotation_r		knee_angle_r		ankle_angle_r		subtalar_angle_r		mtp_angle_r		hip_flexion_l		hip_adduction_l		hip_rotation_l		knee_angle_l		ankle_angle_l		subtalar_angle_l		mtp_angle_l		lumbar_extension		lumbar_bending		lumbar_rotation		neck_flexion		neck_lateral_bending		neck_rotation		arm_flex_r		arm_add_r		arm_rot_r		elbow_flex_r		pro_sup_r		wrist_flex_r		wrist_dev_r		hand_finger_flex_r		arm_flex_l		arm_add_l		arm_rot_l		elbow_flex_l		pro_sup_l		wrist_flex_l		wrist_dev_l		hand_finger_flex_l		
0.049167		3.752339		-14.188971		84.720430		0.070804		1.761274		1.722451		69.444315		1.600686		2.807196		-146.270603		20.364001		10.344078		27.966408		70.967251		-11.039323		15.432891		-146.780494		8.652669		26.334333		39.359921		-37.668976		1.121520		6.277415		28.650353		0.577987		-0.646767		52.916612		-26.532735		0.956459		95.905668		108.304136		-0.248552		-4.360374		-5.566800		65.456107		-26.464282		13.024751		64.079121		122.362990		-11.845724		0.516591		-2.279615		
0.050581		3.774842		-14.315937		84.631500		0.070664		1.761577		1.720264		69.240751		1.672019		2.828431		-146.112324		20.266414		10.244572		28.238826		70.907872		-11.067774		15.395083		-146.635855		8.134205		26.305237		39.752423		-37.421746		1.159048		6.359143		28.521615		0.530759		-0.600143		53.492297		-26.559521		1.225709		95.823140		108.609705		-0.059254		-4.274122		-5.713246		65.700838		-26.382168		12.935359		64.128855		122.574831		-11.616926		0.575138		-2.544243		
0.051995		3.755814		-14.469766		84.553243		0.070493		1.761758		1.718078		69.077991		1.705519		2.897186		-145.978459		20.198194		10.213012		28.282944		70.888125		-11.051202		15.327844		-146.498907		7.638312		26.326516		39.767668		-37.120251		1.163832		6.461209		28.316770		0.482623		-0.643822		53.996007		-26.653360		1.439181		95.750701		108.665166		0.082082		-4.238866		-5.704762		66.027398		-26.238807		13.000019		64.062075		122.620392		-11.512552		0.664211		-2.586944		
0.053409		3.744073		-14.613646		84.462485		0.070339		1.761974		1.715860		68.899813		1.756441		2.962951		-145.835365		20.129045		10.163894		28.341192		70.858950		-11.054143		15.257123		-146.359204		7.112474		26.321362		39.790957		-36.832748		1.168991		6.568502		28.126728		0.439668		-0.667004		54.511477		-26.725442		1.665667		95.676108		108.781709		0.222021		-4.168518		-5.699019		66.331678		-26.101231		13.042997		64.020302		122.695522		-11.428385		0.773707		-2.651051		
0.054823		3.736379		-14.751998		84.364784		0.070193		1.762210		1.713625		68.713069		1.817041		3.027055		-145.687142		20.059381		10.105021		28.407290		70.824536		-11.067924		15.184469		-146.217970		6.569999		26.301525		39.818715		-36.553017		1.174357		6.678698		27.944911		0.399590		-0.678798		55.033481		-26.785436		1.899383		95.600319		108.932186		0.361184		-4.078674		-5.694799		66.623579		-25.966868		13.073929		63.992422		122.787078		-11.355445		0.894549		-2.727052		
0.056237		3.728296		-14.881837		84.269007		0.070033		1.762463		1.711353		68.513460		1.875449		3.092282		-145.534358		19.984459		10.034807		28.483847		70.786528		-11.077541		15.105869		-146.073568		6.006438		26.261783		39.846696		-36.279435		1.184055		6.784190		27.756087		0.354350		-0.684123		55.558649		-26.831697		2.138335		95.521122		109.128162		0.519271		-3.971811		-5.674971		66.906659		-25.820668		13.090543		63.959238		122.893060		-11.292806		1.054737		-2.814119		
0.057652		3.721905		-15.007213		84.173000		0.069874		1.762731		1.709066		68.306807		1.935337		3.155482		-145.378042		19.902752		9.954921		28.601164		70.744444		-11.088892		15.023035		-145.926910		5.434420		26.198397		39.913879		-36.012574		1.195662		6.887219		27.577093		0.308764		-0.683950		56.086456		-26.862007		2.367545		95.442956		109.379958		0.704748		-3.855899		-5.653793		67.181416		-25.676478		13.094701		63.940657		123.024826		-11.215425		1.241660		-2.941481		
0.059066		3.730081		-15.105520		84.072778		0.069728		1.763108		1.706711		68.056771		2.010166		3.200452		-145.197719		19.770771		9.807934		29.045698		70.672675		-11.119648		14.912001		-145.765223		4.817038		25.961682		40.307476		-35.794410		1.218020		6.975318		27.488369		0.266433		-0.645661		56.632487		-26.775741		2.509330		95.377438		110.042749		1.095933		-3.684827		-5.639936		67.397311		-25.563128		13.012105		64.050073		123.354284		-11.002931		1.604544		-3.391458		
0.060480		3.726202		-15.213250		83.976965		0.069562		1.763428		1.704355		67.822086		2.069578		3.262436		-145.027958		19.652569		9.695937		29.364916		70.618616		-11.132250		14.809585		-145.606646		4.193080		25.807826		40.562003		-35.550371		1.234628		7.070242		27.338321		0.214046		-0.629224		57.160117		-26.725889		2.669689		95.290931		110.519066		1.408651		-3.549732		-5.617763		67.634691		-25.419571		12.962628		64.086736		123.579300		-10.837841		1.888477		-3.718654		
0.061894		3.698847		-15.339331		83.889738		0.069355		1.763636		1.701995		67.617293		2.098967		3.357555		-144.878764		19.561197		9.652079		29.440097		70.599045		-11.109498		14.723955		-145.454130		3.556316		25.815328		40.545709		-35.255945		1.240040		7.178454		27.068852		0.142075		-0.655341		57.651911		-26.746947		2.866223		95.163548		110.632250		1.568561		-3.484695		-5.579396		67.913909		-25.217186		12.977646		63.981722		123.600931		-10.765064		2.018664		-3.806748		
0.063308		3.677419		-15.453593		83.787267		0.069187		1.763911		1.699598		67.393835		2.152280		3.448077		-144.714583		19.443102		9.573434		29.719219		70.564021		-11.112171		14.607120		-145.291329		2.886777		25.679538		40.609371		-34.990929		1.240955		7.278834		26.879567		0.088324		-0.661697		58.155936		-26.703345		3.015605		95.058012		111.011165		1.877692		-3.371051		-5.489545		68.160779		-25.066671		12.981793		63.965599		123.664188		-10.655091		2.241899		-4.138981		
0.064722		3.660438		-15.558991		83.673362		0.069048		1.764237		1.697172		67.156379		2.223534		3.535151		-144.539163		19.304965		9.468698		30.151297		70.517408		-11.133911		14.466882		-145.120815		2.192658		25.436277		40.733000		-34.747972		1.238497		7.373340		26.750419		0.048238		-0.653234		58.669134		-26.611249		3.129623		94.968860		111.589380		2.298740		-3.220951		-5.361083		68.383387		-24.955056		12.977787		64.016144		123.758665		-10.517220		2.534919		-4.654318		
